<?xml version="1.0" encoding="UTF-8"?>
<!-- Created with Inkscape (http://www.inkscape.org/) -->
<svg width="30" height="51.391" version="1.1" viewBox="0 0 79.375 135.97" xmlns="http://www.w3.org/2000/svg" xmlns:cc="http://creativecommons.org/ns#" xmlns:dc="http://purl.org/dc/elements/1.1/" xmlns:rdf="http://www.w3.org/1999/02/22-rdf-syntax-ns#" xmlns:xlink="http://www.w3.org/1999/xlink">
 <defs>
  <linearGradient id="linearGradient4555" x1="161.5" x2="424" y1="472.57" y2="472.57" gradientUnits="userSpaceOnUse">
   <stop stop-color="#f00" offset="0"/>
   <stop stop-color="#ff8080" offset="1"/>
  </linearGradient>
  <linearGradient id="linearGradient4563" x1="124" x2="714" y1="579.52" y2="575.52" gradientUnits="userSpaceOnUse">
   <stop offset="0"/>
   <stop stop-opacity="0" offset="1"/>
  </linearGradient>
 </defs>
 <metadata>
  <rdf:RDF>
   <cc:Work rdf:about="">
    <dc:format>image/svg+xml</dc:format>
    <dc:type rdf:resource="http://purl.org/dc/dcmitype/StillImage"/>
    <dc:title/>
   </cc:Work>
  </rdf:RDF>
 </metadata>
 <g transform="translate(-51.065 -55.195)">
  <g transform="translate(18.256 -1.8521)">
   <g transform="rotate(180 72.496 125.03)">
    <path transform="scale(.26458)" d="m274 429.52a150 150 0 0 0-150 150 150 150 0 0 0 150 150 150 150 0 0 0 150-150 150 150 0 0 0-150-150zm0 75a75 75 0 0 1 75 75 75 75 0 0 1-75 75 75 75 0 0 1-75-75 75 75 0 0 1 75-75z" fill="url(#linearGradient4563)"/>
    <path transform="scale(.26458)" d="m424 215.61c-41.55 0-75 33.45-75 75v288.91a75 75 0 0 1-75 75 75 75 0 0 1-75-75 75 75 0 0 1 69.695-74.812 112.5 112.5 0 0 0-107.2 112.31 112.5 112.5 0 0 0 112.5 112.5 112.5 112.5 0 0 0 11.23-0.5625 150 150 0 0 0 138.77-149.44z" fill="url(#linearGradient4555)"/>
   </g>
   <circle cx="72.231" cy="96.446" r="7.4083" fill="#1a1a1a" fill-opacity=".99485"/>
  </g>
 </g>
</svg>
