<?xml version="1.0" encoding="UTF-8" standalone="no"?>
<!-- Created with Inkscape (http://www.inkscape.org/) -->

<svg
   xmlns:dc="http://purl.org/dc/elements/1.1/"
   xmlns:cc="http://creativecommons.org/ns#"
   xmlns:rdf="http://www.w3.org/1999/02/22-rdf-syntax-ns#"
   xmlns:svg="http://www.w3.org/2000/svg"
   xmlns="http://www.w3.org/2000/svg"
   xmlns:sodipodi="http://sodipodi.sourceforge.net/DTD/sodipodi-0.dtd"
   xmlns:inkscape="http://www.inkscape.org/namespaces/inkscape"
   width="210mm"
   height="297mm"
   version="1.1"
   viewBox="0 0 210 297"
   id="svg4448"
   sodipodi:docname="logo.svg"
   inkscape:version="0.92.2 (5c3e80d, 2017-08-06)">
  <defs
     id="defs4452" />
  <sodipodi:namedview
     pagecolor="#ffffff"
     bordercolor="#666666"
     borderopacity="1"
     objecttolerance="10"
     gridtolerance="10"
     guidetolerance="10"
     inkscape:pageopacity="0"
     inkscape:pageshadow="2"
     inkscape:window-width="1920"
     inkscape:window-height="1018"
     id="namedview4450"
     showgrid="true"
     inkscape:object-paths="true"
     inkscape:snap-intersection-paths="true"
     inkscape:snap-smooth-nodes="true"
     inkscape:zoom="0.84096521"
     inkscape:cx="455.95356"
     inkscape:cy="596.75828"
     inkscape:window-x="-8"
     inkscape:window-y="-8"
     inkscape:window-maximized="1"
     inkscape:current-layer="svg4448"
     inkscape:snap-midpoints="true"
     showguides="true">
    <inkscape:grid
       type="xygrid"
       id="grid5061"
       snapvisiblegridlinesonly="true"
       visible="true"
       enabled="false"
       dotted="false" />
  </sodipodi:namedview>
  <metadata
     id="metadata4442">
    <rdf:RDF>
      <cc:Work
         rdf:about="">
        <dc:format>image/svg+xml</dc:format>
        <dc:type
           rdf:resource="http://purl.org/dc/dcmitype/StillImage" />
        <dc:title></dc:title>
      </cc:Work>
    </rdf:RDF>
  </metadata>
  <path
     style="opacity:1;stroke-width:4.80450487"
     d="M 369.99609 212.51953 A 149.99811 149.99624 0 0 0 219.99805 362.51953 A 149.99811 149.99624 0 0 0 369.99609 512.51953 A 149.99811 149.99624 0 0 0 519.99805 362.51953 A 149.99811 149.99624 0 0 0 369.99609 212.51953 z M 369.42773 291.61719 A 75.000945 75.000945 0 0 1 444.42773 366.61914 A 75.000945 75.000945 0 0 1 369.42773 441.61914 A 75.000945 75.000945 0 0 1 294.42578 366.61914 A 75.000945 75.000945 0 0 1 369.42773 291.61719 z "
     transform="scale(0.26458333)"
     id="path4444" />
  <path
     style="opacity:1;stroke-width:3.57466626"
     d="m 369.42773,291.61719 a 75.000944,75.000944 0 0 0 -6.32617,0.31054 112.50142,110.71776 0 0 1 6.32617,-0.31054 z"
     transform="scale(0.26458333)"
     id="path3910" />
  <path
     style="opacity:1;stroke-width:3.57466626;fill:#ff1a1c;fill-opacity:1"
     d="M 519.42773 27.642578 C 477.87774 27.642578 444.42773 61.092568 444.42773 102.64258 L 444.42773 366.61914 A 75.000942 75.000942 0 0 1 369.42773 441.61914 A 75.000942 75.000942 0 0 1 294.42578 366.61914 A 75.000942 75.000942 0 0 1 363.10156 291.92773 A 112.50142 110.71776 0 0 0 256.92578 402.33594 A 112.50142 110.71776 0 0 0 369.42773 513.05273 A 112.50142 110.71776 0 0 0 392.95312 510.55078 A 149.99811 149.99624 0 0 0 519.83984 366.97266 L 519.42773 366.61914 L 519.42773 27.642578 z "
     id="path5003"
     transform="scale(0.26458333)" />
</svg>
