<?xml version="1.0" encoding="UTF-8" standalone="no"?>
<!-- Created with Inkscape (http://www.inkscape.org/) -->

<svg
   xmlns:dc="http://purl.org/dc/elements/1.1/"
   xmlns:cc="http://creativecommons.org/ns#"
   xmlns:rdf="http://www.w3.org/1999/02/22-rdf-syntax-ns#"
   xmlns:svg="http://www.w3.org/2000/svg"
   xmlns="http://www.w3.org/2000/svg"
   xmlns:xlink="http://www.w3.org/1999/xlink"
   xmlns:sodipodi="http://sodipodi.sourceforge.net/DTD/sodipodi-0.dtd"
   xmlns:inkscape="http://www.inkscape.org/namespaces/inkscape"
   width="793.70081"
   height="1122.5197"
   viewBox="0 0 210 297"
   version="1.1"
   id="svg3951"
   inkscape:version="0.92.2 (5c3e80d, 2017-08-06)"
   sodipodi:docname="logo-2.svg">
  <defs
     id="defs3945">
    <linearGradient
       inkscape:collect="always"
       id="linearGradient4561">
      <stop
         style="stop-color:#000000;stop-opacity:1;"
         offset="0"
         id="stop4557" />
      <stop
         style="stop-color:#000000;stop-opacity:0;"
         offset="1"
         id="stop4559" />
    </linearGradient>
    <linearGradient
       inkscape:collect="always"
       id="linearGradient4553">
      <stop
         style="stop-color:#ff0000;stop-opacity:1;"
         offset="0"
         id="stop4549" />
      <stop
         style="stop-color:#ff8080;stop-opacity:1"
         offset="1"
         id="stop4551" />
    </linearGradient>
    <linearGradient
       inkscape:collect="always"
       xlink:href="#linearGradient4553"
       id="linearGradient4555"
       x1="161.5"
       y1="472.56543"
       x2="424"
       y2="472.56543"
       gradientUnits="userSpaceOnUse" />
    <linearGradient
       inkscape:collect="always"
       xlink:href="#linearGradient4561"
       id="linearGradient4563"
       x1="124"
       y1="579.51953"
       x2="714"
       y2="575.51953"
       gradientUnits="userSpaceOnUse" />
  </defs>
  <sodipodi:namedview
     id="base"
     pagecolor="#ffffff"
     bordercolor="#666666"
     borderopacity="1.0"
     inkscape:pageopacity="0.0"
     inkscape:pageshadow="2"
     inkscape:zoom="1"
     inkscape:cx="210.32506"
     inkscape:cy="706.40393"
     inkscape:document-units="px"
     inkscape:current-layer="layer1"
     showgrid="false"
     units="px"
     inkscape:object-paths="true"
     inkscape:snap-intersection-paths="true"
     inkscape:snap-smooth-nodes="true"
     inkscape:snap-midpoints="true"
     showborder="true"
     inkscape:window-width="1920"
     inkscape:window-height="1018"
     inkscape:window-x="-8"
     inkscape:window-y="-8"
     inkscape:window-maximized="1" />
  <metadata
     id="metadata3948">
    <rdf:RDF>
      <cc:Work
         rdf:about="">
        <dc:format>image/svg+xml</dc:format>
        <dc:type
           rdf:resource="http://purl.org/dc/dcmitype/StillImage" />
        <dc:title></dc:title>
      </cc:Work>
    </rdf:RDF>
  </metadata>
  <g
     inkscape:label="Layer 1"
     inkscape:groupmode="layer"
     id="layer1">
    <g
       id="g4599"
       transform="translate(18.25625,-1.8520833)">
      <g
         transform="rotate(-180,72.49583,125.03294)"
         id="g4571">
        <path
           inkscape:connector-curvature="0"
           style="opacity:1;fill:url(#linearGradient4563);fill-opacity:1;stroke:none;stroke-width:85.10639191;stroke-linecap:round;stroke-linejoin:round;stroke-miterlimit:4;stroke-dasharray:none;stroke-opacity:1"
           d="m 274,429.51953 a 150.00001,150.00001 0 0 0 -150,150 150.00001,150.00001 0 0 0 150,150 150.00001,150.00001 0 0 0 150,-150 150.00001,150.00001 0 0 0 -150,-150 z m 0,75 a 75,75 0 0 1 75,75 75,75 0 0 1 -75,75 75,75 0 0 1 -75,-75 75,75 0 0 1 75,-75 z"
           transform="scale(0.26458333)"
           id="path4498" />
        <path
           inkscape:connector-curvature="0"
           style="opacity:1;fill:url(#linearGradient4555);fill-opacity:1;stroke:none;stroke-width:63.82979584;stroke-linecap:round;stroke-linejoin:round;stroke-miterlimit:4;stroke-dasharray:none;stroke-opacity:1"
           d="m 424,215.61133 c -41.54997,0 -75,33.45 -75,75 v 288.9082 a 74.999996,74.999996 0 0 1 -75,75 74.999996,74.999996 0 0 1 -75,-75 74.999996,74.999996 0 0 1 69.69531,-74.8125 112.5,112.5 0 0 0 -107.19531,112.3125 112.5,112.5 0 0 0 112.5,112.5 112.5,112.5 0 0 0 11.23047,-0.5625 A 150.00001,150.00001 0 0 0 424,579.51953 Z"
           transform="scale(0.26458333)"
           id="path4523" />
      </g>
      <circle
         r="7.4083333"
         cy="96.445831"
         cx="72.231239"
         id="path4583"
         style="opacity:1;fill:#1a1a1a;fill-opacity:0.9948454;stroke:none;stroke-width:21.16666603;stroke-linecap:round;stroke-linejoin:round;stroke-miterlimit:4;stroke-dasharray:none;stroke-opacity:1" />
    </g>
  </g>
</svg>
